<svg width="340" height="106" viewBox="0 0 340 106" fill="none" xmlns="http://www.w3.org/2000/svg">
<path d="M98.3833 3.54246L99.882 18.0531H98.1789C97.0208 12.4668 92.6608 6.33559 85.5076 6.33559C82.1014 6.33559 78.627 8.44746 78.627 12.6712C78.627 22.89 101.381 24.2525 101.381 38.2181C101.381 44.0087 96.7483 50.5487 87.0064 50.5487C81.8289 50.5487 78.4908 48.2325 76.447 48.2325C75.0164 48.2325 74.3351 49.3906 74.3351 50.4806H72.8364L70.7926 36.0381H72.3595C73.6539 39.24 77.1283 48.0962 86.3251 48.0962C91.7751 48.0962 94.5001 44.2131 94.5001 40.5343C94.5001 36.6512 93.4101 34.335 83.3958 28.4762C77.1283 24.8656 72.7683 21.8681 72.7683 15.1237C72.7683 7.35747 78.9676 3.54246 85.0989 3.54246C89.1864 3.54246 92.8651 5.85871 94.5683 5.85871C96.4758 5.85871 96.8164 4.29184 96.9526 3.54246H98.3833ZM135.897 45.0987V46.87C133.036 50.2081 130.924 50.2762 129.834 50.2762C128.608 50.2762 125.747 50.2081 125.406 45.3031C122.885 47.5512 119.275 50.2762 115.528 50.2762C111.849 50.2762 108.307 47.7556 108.307 43.1912C108.307 36.3787 114.233 34.0625 125.338 29.7025V25.5468C125.338 20.6418 122.136 19.8925 120.092 19.8925C117.844 19.8925 115.255 21.1187 115.255 23.2306C115.255 24.2525 115.596 25.2743 115.596 25.8875C115.596 27.3181 114.302 28.8168 112.53 28.8168C110.418 28.8168 109.601 26.9093 109.601 25.8193C109.601 23.0943 112.803 18.2575 120.705 18.2575C130.856 18.2575 130.856 25.07 130.856 29.1575V42.4418C130.856 44.4175 130.856 46.3931 132.832 46.3931C134.262 46.3931 135.148 45.7118 135.897 45.0987ZM125.338 41.2156V31.3375C115.051 34.7437 114.302 38.5587 114.302 40.875V41.0112C114.302 44.2131 116.277 46.325 118.798 46.325C120.297 46.325 122.408 45.4393 123.022 45.0987C125.133 44.0768 125.338 43.2593 125.338 41.2156ZM140.757 45.9162V10.5593C140.757 8.51559 140.757 7.08497 137.76 7.08497C137.351 7.08497 136.67 7.08497 136.261 7.15309V6.06309C139.531 5.17747 142.869 4.22372 146.139 3.06559L146.48 3.20184V23.7756H146.616C147.025 22.2087 150.635 18.2575 155.813 18.2575C164.056 18.2575 167.939 26.0918 167.939 33.3812C167.939 39.5125 163.92 50.2762 151.316 50.2762C147.91 50.2762 140.757 48.4368 140.757 45.9162ZM146.48 27.6587V44.8262C146.48 47.2106 151.316 48.0962 153.02 48.0962C160.854 48.0962 161.944 40.3981 161.944 35.9018C161.944 29.5662 159.491 22.5493 153.292 22.5493C151.112 22.5493 146.752 23.7756 146.48 27.6587ZM172.299 6.53996C172.299 2.99746 175.092 -3.79046e-05 178.839 -3.79046e-05C182.45 -3.79046e-05 185.243 2.92934 185.243 6.53996C185.243 10.2187 182.45 12.9437 178.839 12.9437C175.024 12.9437 172.299 10.1506 172.299 6.53996ZM187.355 49.595H171.209V48.5731C175.433 48.3687 176.591 47.96 176.591 42.6462V26.8412C176.591 22.8218 175.296 22.7537 174.206 22.7537C173.253 22.7537 172.367 22.89 171.481 23.0262V22.0043C175.024 20.8462 178.498 19.5518 182.041 18.2575L182.313 18.4618V42.6462C182.313 47.1425 182.654 48.3006 187.355 48.5731V49.595ZM194.529 43.4637V26.5687C194.529 22.2768 193.235 22.2087 192.145 22.2087C191.191 22.2087 190.442 22.345 190.169 22.4812V21.3231C193.235 20.4375 196.437 19.4156 199.571 18.2575L200.048 18.3937V23.7756C203.386 20.6418 205.974 18.2575 209.994 18.2575C213.128 18.2575 217.964 20.0968 217.964 28.4762V44.0768C217.964 47.2787 218.782 48.3006 222.12 48.5731V49.595H207.95V48.5731C210.471 48.3687 212.242 48.0281 212.242 42.8506V28.6125C212.242 24.4568 211.016 22.0043 206.996 22.0043C204.953 22.0043 202.841 23.3668 200.252 25.8875V45.0306C200.252 47.2787 201.206 48.3687 204.748 48.5731V49.595H190.306V48.5731C193.508 48.3687 194.529 47.4831 194.529 43.4637ZM250.937 38.4225L252.027 38.8993C251.346 41.0112 247.394 50.2762 237.584 50.2762C230.023 50.2762 224.845 44.69 224.845 35.0162C224.845 22.4131 233.293 18.2575 238.743 18.2575C245.146 18.2575 249.983 21.8 250.733 30.7243H229.546C230.363 42.7825 235.881 45.5756 240.378 45.5756C246.441 45.5756 249.37 40.9431 250.937 38.4225ZM229.75 28.5443H243.784C243.307 25.2743 242.626 20.71 237.244 20.71C233.497 20.71 230.84 22.5493 229.75 28.5443ZM12.7392 64.4693V81.2281C18.4617 81.16 28.6805 81.0237 28.6805 71.2818C28.6805 62.2212 19.7561 62.0168 16.963 62.0168C13.3523 62.0168 12.7392 62.4937 12.7392 64.4693ZM43.7361 103.301V104.595H32.768L16.5542 83.6125L12.7392 83.7487V97.1693C12.7392 101.734 13.4205 103.028 18.8705 103.301V104.595H-0.000154226V103.301C5.51797 102.96 5.79047 101.529 5.79047 96.42V66.9218C5.79047 61.8806 4.7686 61.2675 -0.000154226 60.7906V59.4962H18.8023C24.8655 59.4962 36.1061 60.9268 36.1061 71.4181C36.1061 80.5468 27.2499 82.1818 23.7755 82.8631L37.8092 100.099C39.308 101.938 40.943 103.164 43.7361 103.301ZM72.0756 93.4225L73.1656 93.8993C72.4843 96.0112 68.5331 105.276 58.7231 105.276C51.1612 105.276 45.9837 99.69 45.9837 90.0162C45.9837 77.4131 54.4312 73.2575 59.8812 73.2575C66.2849 73.2575 71.1218 76.8 71.8712 85.7243H50.6843C51.5018 97.7825 57.0199 100.576 61.5162 100.576C67.5793 100.576 70.5087 95.9431 72.0756 93.4225ZM50.8887 83.5443H64.9224C64.4456 80.2743 63.7643 75.71 58.3824 75.71C54.6356 75.71 51.9787 77.5493 50.8887 83.5443ZM76.731 61.54C76.731 57.9975 79.5241 55 83.271 55C86.8816 55 89.6747 57.9293 89.6747 61.54C89.6747 65.2187 86.8816 67.9437 83.271 67.9437C79.456 67.9437 76.731 65.1506 76.731 61.54ZM91.7866 104.595H75.641V103.573C79.8647 103.369 81.0228 102.96 81.0228 97.6462V81.8412C81.0228 77.8218 79.7285 77.7537 78.6385 77.7537C77.6847 77.7537 76.7991 77.89 75.9135 78.0262V77.0043C79.456 75.8462 82.9303 74.5518 86.4728 73.2575L86.7453 73.4618V97.6462C86.7453 102.142 87.086 103.301 91.7866 103.573V104.595ZM120.625 93.9675L121.579 94.5806C117.9 102.347 113.472 105.276 107.954 105.276C102.504 105.276 95.2147 100.848 95.2147 90.0843C95.2147 78.9118 103.117 73.2575 110.475 73.2575C112.927 73.2575 115.993 74.2793 117.696 75.3693C119.74 76.8 120.625 78.9118 120.625 80.1381C120.625 81.705 119.535 82.9993 117.492 83.1356C115.72 83.2718 114.562 81.5006 114.153 80.0018L113.745 78.5031C113.2 76.4593 112.859 75.2331 109.248 75.2331C106.728 75.2331 100.46 77.345 100.46 87.3593C100.46 95.1937 105.161 100.371 110.883 100.371C115.788 100.371 118.309 97.4418 120.625 93.9675ZM156.959 103.573V104.595H142.516V103.573C145.854 103.232 147.149 102.892 147.149 97.6462V84.1575C147.149 79.5931 145.65 76.9362 141.903 76.9362C139.928 76.9362 137.271 77.9581 134.478 81.2281V97.6462C134.478 102.892 135.772 103.232 139.11 103.573V104.595H124.395V103.573C128.074 103.096 128.755 102.619 128.755 97.6462V65.5593C128.755 63.5156 128.755 62.085 125.758 62.085C125.349 62.085 124.668 62.085 124.463 62.1531V61.0631C127.529 60.1775 130.867 59.2237 134.137 58.0656L134.478 58.27V78.8437H134.614C136.998 75.4375 140.336 73.2575 144.424 73.2575C152.803 73.2575 152.871 81.3643 152.871 84.0893V97.6462C152.871 102.619 153.553 102.96 156.959 103.573ZM179.304 83.2037H178.282C176.783 76.255 173.718 74.8243 170.72 74.8243C166.973 74.8243 165.543 77.4812 165.543 79.2525C165.543 80.615 165.951 82.5906 168.472 84.0893L175.829 88.4493C179.168 90.4931 181.552 92.4006 181.552 96.4881C181.552 102.415 176.034 105.276 171.674 105.276C168.608 105.276 165.679 103.982 163.771 104.05C162.954 104.05 162.681 104.254 162.273 104.867H161.387V94.24H162.477C163.294 97.8506 164.589 103.777 171.265 103.777C173.581 103.777 176.783 102.687 176.783 98.8043C176.783 96.6243 175.421 94.9893 173.241 93.7631L169.289 91.515C165.066 89.1306 161.319 86.61 161.319 81.5687C161.319 77.7537 164.248 73.2575 170.856 73.2575C173.854 73.2575 175.966 74.62 177.124 74.62C177.737 74.62 178.078 74.1431 178.282 73.8706H179.031L179.304 83.2037ZM201.695 73.9387V76.1187H194.814V95.6025C194.814 97.7143 194.814 101.734 198.288 101.734C200.468 101.734 201.695 100.235 202.444 99.3493L203.33 100.099C201.695 103.028 198.493 105.276 195.359 105.276C191.885 105.276 189.091 103.437 189.091 96.6243V76.1187H185.481C185.345 76.0506 185.208 75.8462 185.208 75.6418C185.208 74.8243 186.707 74.4156 188.206 72.9168C190.795 70.26 191.816 68.7612 194.337 65.1506C194.814 65.1506 194.814 65.4912 194.814 66.0362V73.9387H201.695ZM236.46 103.573V104.595H222.018V103.573C225.356 103.232 226.65 102.892 226.65 97.6462V84.1575C226.65 79.5931 225.151 76.9362 221.405 76.9362C219.429 76.9362 216.772 77.9581 213.979 81.2281V97.6462C213.979 102.892 215.273 103.232 218.611 103.573V104.595H203.896V103.573C207.575 103.096 208.256 102.619 208.256 97.6462V65.5593C208.256 63.5156 208.256 62.085 205.259 62.085C204.85 62.085 204.169 62.085 203.965 62.1531V61.0631C207.03 60.1775 210.368 59.2237 213.638 58.0656L213.979 58.27V78.8437H214.115C216.5 75.4375 219.838 73.2575 223.925 73.2575C232.305 73.2575 232.373 81.3643 232.373 84.0893V97.6462C232.373 102.619 233.054 102.96 236.46 103.573ZM267.457 100.099V101.87C264.596 105.208 262.484 105.276 261.394 105.276C260.168 105.276 257.306 105.208 256.966 100.303C254.445 102.551 250.835 105.276 247.088 105.276C243.409 105.276 239.866 102.756 239.866 98.1912C239.866 91.3787 245.793 89.0625 256.898 84.7025V80.5468C256.898 75.6418 253.696 74.8925 251.652 74.8925C249.404 74.8925 246.815 76.1187 246.815 78.2306C246.815 79.2525 247.156 80.2743 247.156 80.8875C247.156 82.3181 245.861 83.8168 244.09 83.8168C241.978 83.8168 241.161 81.9093 241.161 80.8193C241.161 78.0943 244.363 73.2575 252.265 73.2575C262.416 73.2575 262.416 80.07 262.416 84.1575V97.4418C262.416 99.4175 262.416 101.393 264.391 101.393C265.822 101.393 266.708 100.712 267.457 100.099ZM256.898 96.2156V86.3375C246.611 89.7437 245.861 93.5587 245.861 95.875V96.0112C245.861 99.2131 247.837 101.325 250.358 101.325C251.856 101.325 253.968 100.439 254.581 100.099C256.693 99.0768 256.898 98.2593 256.898 96.2156ZM269.047 104.595V103.573C273.066 103.301 274.292 102.415 274.292 98.6681V66.1725C274.292 63.1068 273.884 62.0168 271.227 62.0168C270.341 62.0168 269.728 62.085 268.911 62.1531V61.0631C272.521 60.1775 276.132 59.2237 279.742 58.0656L280.015 58.2018V98.8725C280.015 102.824 281.173 103.369 285.124 103.573V104.595H269.047ZM314.372 93.4225L315.462 93.8993C314.78 96.0112 310.829 105.276 301.019 105.276C293.457 105.276 288.28 99.69 288.28 90.0162C288.28 77.4131 296.727 73.2575 302.177 73.2575C308.581 73.2575 313.418 76.8 314.167 85.7243H292.98C293.798 97.7825 299.316 100.576 303.812 100.576C309.875 100.576 312.805 95.9431 314.372 93.4225ZM293.185 83.5443H307.219C306.742 80.2743 306.06 75.71 300.679 75.71C296.932 75.71 294.275 77.5493 293.185 83.5443ZM322.025 98.8725V81.8412C322.025 77.8218 320.73 77.7537 319.64 77.7537C318.686 77.7537 317.937 77.89 317.324 78.0262V76.9362C320.662 75.8462 324.068 74.62 327.406 73.2575L327.747 73.3937V79.4568H327.883C331.085 74.62 333.401 73.2575 335.99 73.2575C338.306 73.2575 339.669 74.6881 339.669 76.9362C339.669 78.6393 338.715 79.9337 337.08 79.9337C334.696 79.9337 334.015 77.5493 332.38 77.5493C330.745 77.5493 327.747 80.9556 327.747 83.1356V98.4637C327.747 103.164 330.063 103.437 333.538 103.573V104.595H317.188V103.573C320.935 102.892 322.025 102.687 322.025 98.8725Z" fill="black"/>
</svg>
