<svg width="610" height="193" viewBox="0 0 610 193" fill="none" xmlns="http://www.w3.org/2000/svg">
<path d="M577.121 180.5V149.25C577.121 141.875 574.746 141.75 572.746 141.75C570.996 141.75 569.621 142 568.496 142.25V140.25C574.621 138.25 580.871 136 586.996 133.5L587.621 133.75V144.875H587.871C593.746 136 597.996 133.5 602.746 133.5C606.996 133.5 609.496 136.125 609.496 140.25C609.496 143.375 607.746 145.75 604.746 145.75C600.371 145.75 599.121 141.375 596.121 141.375C593.121 141.375 587.621 147.625 587.621 151.625V179.75C587.621 188.375 591.871 188.875 598.246 189.125V191H568.246V189.125C575.121 187.875 577.121 187.5 577.121 180.5Z" fill="black"/>
<path d="M564.328 170.5L566.328 171.375C565.078 175.25 557.828 192.25 539.828 192.25C525.953 192.25 516.453 182 516.453 164.25C516.453 141.125 531.953 133.5 541.953 133.5C553.703 133.5 562.578 140 563.953 156.375H525.078C526.578 178.5 536.703 183.625 544.953 183.625C556.078 183.625 561.453 175.125 564.328 170.5ZM525.453 152.375H551.203C550.328 146.375 549.078 138 539.203 138C532.328 138 527.453 141.375 525.453 152.375Z" fill="black"/>
<path d="M482.414 191V189.125C489.789 188.625 492.039 187 492.039 180.125V120.5C492.039 114.875 491.289 112.875 486.414 112.875C484.789 112.875 483.664 113 482.164 113.125V111.125C488.789 109.5 495.414 107.75 502.039 105.625L502.539 105.875V180.5C502.539 187.75 504.664 188.75 511.914 189.125V191H482.414Z" fill="black"/>
<path d="M480.746 182.75V186C475.496 192.125 471.621 192.25 469.621 192.25C467.371 192.25 462.121 192.125 461.496 183.125C456.871 187.25 450.246 192.25 443.371 192.25C436.621 192.25 430.121 187.625 430.121 179.25C430.121 166.75 440.996 162.5 461.371 154.5V146.875C461.371 137.875 455.496 136.5 451.746 136.5C447.621 136.5 442.871 138.75 442.871 142.625C442.871 144.5 443.496 146.375 443.496 147.5C443.496 150.125 441.121 152.875 437.871 152.875C433.996 152.875 432.496 149.375 432.496 147.375C432.496 142.375 438.371 133.5 452.871 133.5C471.496 133.5 471.496 146 471.496 153.5V177.875C471.496 181.5 471.496 185.125 475.121 185.125C477.746 185.125 479.371 183.875 480.746 182.75ZM461.371 175.625V157.5C442.496 163.75 441.121 170.75 441.121 175V175.25C441.121 181.125 444.746 185 449.371 185C452.121 185 455.996 183.375 457.121 182.75C460.996 180.875 461.371 179.375 461.371 175.625Z" fill="black"/>
<path d="M425.121 189.125V191H398.621V189.125C404.746 188.5 407.121 187.875 407.121 178.25V153.5C407.121 145.125 404.371 140.25 397.496 140.25C393.871 140.25 388.996 142.125 383.871 148.125V178.25C383.871 187.875 386.246 188.5 392.371 189.125V191H365.371V189.125C372.121 188.25 373.371 187.375 373.371 178.25V119.375C373.371 115.625 373.371 113 367.871 113C367.121 113 365.871 113 365.496 113.125V111.125C371.121 109.5 377.246 107.75 383.246 105.625L383.871 106V143.75H384.121C388.496 137.5 394.621 133.5 402.121 133.5C417.496 133.5 417.621 148.375 417.621 153.375V178.25C417.621 187.375 418.871 188 425.121 189.125Z" fill="black"/>
<path d="M362.582 134.75V138.75H349.957V174.5C349.957 178.375 349.957 185.75 356.332 185.75C360.332 185.75 362.582 183 363.957 181.375L365.582 182.75C362.582 188.125 356.707 192.25 350.957 192.25C344.582 192.25 339.457 188.875 339.457 176.375V138.75H332.832C332.582 138.625 332.332 138.25 332.332 137.875C332.332 136.375 335.082 135.625 337.832 132.875C342.582 128 344.457 125.25 349.082 118.625C349.957 118.625 349.957 119.25 349.957 120.25V134.75H362.582Z" fill="black"/>
<path d="M322.748 151.75H320.873C318.123 139 312.498 136.375 306.998 136.375C300.123 136.375 297.498 141.25 297.498 144.5C297.498 147 298.248 150.625 302.873 153.375L316.373 161.375C322.498 165.125 326.873 168.625 326.873 176.125C326.873 187 316.748 192.25 308.748 192.25C303.123 192.25 297.748 189.875 294.248 190C292.748 190 292.248 190.375 291.498 191.5H289.873V172H291.873C293.373 178.625 295.748 189.5 307.998 189.5C312.248 189.5 318.123 187.5 318.123 180.375C318.123 176.375 315.623 173.375 311.623 171.125L304.373 167C296.623 162.625 289.748 158 289.748 148.75C289.748 141.75 295.123 133.5 307.248 133.5C312.748 133.5 316.623 136 318.748 136C319.873 136 320.498 135.125 320.873 134.625H322.248L322.748 151.75Z" fill="black"/>
<path d="M282.998 189.125V191H256.498V189.125C262.623 188.5 264.998 187.875 264.998 178.25V153.5C264.998 145.125 262.248 140.25 255.373 140.25C251.748 140.25 246.873 142.125 241.748 148.125V178.25C241.748 187.875 244.123 188.5 250.248 189.125V191H223.248V189.125C229.998 188.25 231.248 187.375 231.248 178.25V119.375C231.248 115.625 231.248 113 225.748 113C224.998 113 223.748 113 223.373 113.125V111.125C228.998 109.5 235.123 107.75 241.123 105.625L241.748 106V143.75H241.998C246.373 137.5 252.498 133.5 259.998 133.5C275.373 133.5 275.498 148.375 275.498 153.375V178.25C275.498 187.375 276.748 188 282.998 189.125Z" fill="black"/>
<path d="M217.58 171.5L219.33 172.625C212.58 186.875 204.455 192.25 194.33 192.25C184.33 192.25 170.955 184.125 170.955 164.375C170.955 143.875 185.455 133.5 198.955 133.5C203.455 133.5 209.08 135.375 212.205 137.375C215.955 140 217.58 143.875 217.58 146.125C217.58 149 215.58 151.375 211.83 151.625C208.58 151.875 206.455 148.625 205.705 145.875L204.955 143.125C203.955 139.375 203.33 137.125 196.705 137.125C192.08 137.125 180.58 141 180.58 159.375C180.58 173.75 189.205 183.25 199.705 183.25C208.705 183.25 213.33 177.875 217.58 171.5Z" fill="black"/>
<path d="M138.291 112C138.291 105.5 143.416 100 150.291 100C156.916 100 162.041 105.375 162.041 112C162.041 118.75 156.916 123.75 150.291 123.75C143.291 123.75 138.291 118.625 138.291 112ZM165.916 191H136.291V189.125C144.041 188.75 146.166 188 146.166 178.25V149.25C146.166 141.875 143.791 141.75 141.791 141.75C140.041 141.75 138.416 142 136.791 142.25V140.375C143.291 138.25 149.666 135.875 156.166 133.5L156.666 133.875V178.25C156.666 186.5 157.291 188.625 165.916 189.125V191Z" fill="black"/>
<path d="M130.998 170.5L132.998 171.375C131.748 175.25 124.498 192.25 106.498 192.25C92.623 192.25 83.123 182 83.123 164.25C83.123 141.125 98.623 133.5 108.623 133.5C120.373 133.5 129.248 140 130.623 156.375H91.748C93.248 178.5 103.373 183.625 111.623 183.625C122.748 183.625 128.123 175.125 130.998 170.5ZM92.123 152.375H117.873C116.998 146.375 115.748 138 105.873 138C98.998 138 94.123 141.375 92.123 152.375Z" fill="black"/>
<path d="M23.375 117.375V148.125C33.875 148 52.625 147.75 52.625 129.875C52.625 113.25 36.25 112.875 31.125 112.875C24.5 112.875 23.375 113.75 23.375 117.375ZM80.25 188.625V191H60.125L30.375 152.5L23.375 152.75V177.375C23.375 185.75 24.625 188.125 34.625 188.625V191H0V188.625C10.125 188 10.625 185.375 10.625 176V121.875C10.625 112.625 8.75 111.5 0 110.625V108.25H34.5C45.625 108.25 66.25 110.875 66.25 130.125C66.25 146.875 50 149.875 43.625 151.125L69.375 182.75C72.125 186.125 75.125 188.375 80.25 188.625Z" fill="black"/>
<path d="M451.06 70.5L453.06 71.375C451.81 75.25 444.56 92.25 426.56 92.25C412.685 92.25 403.185 82 403.185 64.25C403.185 41.125 418.685 33.5 428.685 33.5C440.435 33.5 449.31 40 450.685 56.375H411.81C413.31 78.5 423.435 83.625 431.685 83.625C442.81 83.625 448.185 75.125 451.06 70.5ZM412.185 52.375H437.935C437.06 46.375 435.81 38 425.935 38C419.06 38 414.185 41.375 412.185 52.375Z" fill="black"/>
<path d="M348.81 79.75V48.75C348.81 40.875 346.435 40.75 344.435 40.75C342.685 40.75 341.31 41 340.81 41.25V39.125C346.435 37.5 352.31 35.625 358.06 33.5L358.935 33.75V43.625C365.06 37.875 369.81 33.5 377.185 33.5C382.935 33.5 391.81 36.875 391.81 52.25V80.875C391.81 86.75 393.31 88.625 399.435 89.125V91H373.435V89.125C378.06 88.75 381.31 88.125 381.31 78.625V52.5C381.31 44.875 379.06 40.375 371.685 40.375C367.935 40.375 364.06 42.875 359.31 47.5V82.625C359.31 86.75 361.06 88.75 367.56 89.125V91H341.06V89.125C346.935 88.75 348.81 87.125 348.81 79.75Z" fill="black"/>
<path d="M309.27 12C309.27 5.5 314.395 0 321.27 0C327.895 0 333.02 5.375 333.02 12C333.02 18.75 327.895 23.75 321.27 23.75C314.27 23.75 309.27 18.625 309.27 12ZM336.895 91H307.27V89.125C315.02 88.75 317.145 88 317.145 78.25V49.25C317.145 41.875 314.77 41.75 312.77 41.75C311.02 41.75 309.395 42 307.77 42.25V40.375C314.27 38.25 320.645 35.875 327.145 33.5L327.645 33.875V78.25C327.645 86.5 328.27 88.625 336.895 89.125V91Z" fill="black"/>
<path d="M252.645 84.25V19.375C252.645 15.625 252.645 13 247.145 13C246.395 13 245.145 13 244.395 13.125V11.125C250.395 9.5 256.52 7.75 262.52 5.625L263.145 5.875V43.625H263.395C264.145 40.75 270.77 33.5 280.27 33.5C295.395 33.5 302.52 47.875 302.52 61.25C302.52 72.5 295.145 92.25 272.02 92.25C265.77 92.25 252.645 88.875 252.645 84.25ZM263.145 50.75V82.25C263.145 86.625 272.02 88.25 275.145 88.25C289.52 88.25 291.52 74.125 291.52 65.875C291.52 54.25 287.02 41.375 275.645 41.375C271.645 41.375 263.645 43.625 263.145 50.75Z" fill="black"/>
<path d="M244.978 82.75V86C239.728 92.125 235.853 92.25 233.853 92.25C231.603 92.25 226.353 92.125 225.728 83.125C221.103 87.25 214.478 92.25 207.603 92.25C200.853 92.25 194.353 87.625 194.353 79.25C194.353 66.75 205.228 62.5 225.603 54.5V46.875C225.603 37.875 219.728 36.5 215.978 36.5C211.853 36.5 207.103 38.75 207.103 42.625C207.103 44.5 207.728 46.375 207.728 47.5C207.728 50.125 205.353 52.875 202.103 52.875C198.228 52.875 196.728 49.375 196.728 47.375C196.728 42.375 202.603 33.5 217.103 33.5C235.728 33.5 235.728 46 235.728 53.5V77.875C235.728 81.5 235.728 85.125 239.353 85.125C241.978 85.125 243.603 83.875 244.978 82.75ZM225.603 75.625V57.5C206.728 63.75 205.353 70.75 205.353 75V75.25C205.353 81.125 208.978 85 213.603 85C216.353 85 220.228 83.375 221.353 82.75C225.228 80.875 225.603 79.375 225.603 75.625Z" fill="black"/>
<path d="M177.395 6.5L180.145 33.125H177.02C174.895 22.875 166.895 11.625 153.77 11.625C147.52 11.625 141.145 15.5 141.145 23.25C141.145 42 182.895 44.5 182.895 70.125C182.895 80.75 174.395 92.75 156.52 92.75C147.02 92.75 140.895 88.5 137.145 88.5C134.52 88.5 133.27 90.625 133.27 92.625H130.52L126.77 66.125H129.645C132.02 72 138.395 88.25 155.27 88.25C165.27 88.25 170.27 81.125 170.27 74.375C170.27 67.25 168.27 63 149.895 52.25C138.395 45.625 130.395 40.125 130.395 27.75C130.395 13.5 141.77 6.5 153.02 6.5C160.52 6.5 167.27 10.75 170.395 10.75C173.895 10.75 174.52 7.875 174.77 6.5H177.395Z" fill="black"/>
</svg>
